<svg id="Слой_1" data-name="Слой 1" xmlns="http://www.w3.org/2000/svg" viewBox="160 250 1590 600">
  <defs>
    <style>
      .cls-1 {
        fill: #61b9e9;
      }

      .cls-2 {
        fill: #52606b;
      }
    </style>
  </defs>
  <g>
    <path class="cls-1" d="M1671.91,568.6A22.13,22.13,0,1,0,1694,590.75a22.15,22.15,0,0,0-22.09-22.15m7.47,36.21c-.75-1.24-.83-2.22-.83-5.66,0-2.53-.2-5.19-5.79-5.19H1667v10.85h-5V577.49h12.22c3.36,0,9.89.5,9.89,7.63,0,4.06-2.38,6-4.58,6.63v.08c3.93,1.25,4,4.67,4,7.11.06,3.62,0,4.56,1,5.87Zm-.43-19.07c0,3.69-3.17,4.1-5.68,4.1H1667v-8.23h6.35C1675.36,581.61,1679,581.76,1679,585.74ZM983.29,569.18c-6.9,32.33-39.44,51.48-113.51,49.9-41.68-.88-80.5-14.13-80.5-14.13L804.14,566s22.73,9.32,58.49,11.8c34.26,2.38,57.93-2.18,58.27-16.88.22-13-13-17.08-56.45-24.82-45.42-8.08-75.74-25.53-72.88-60,3.53-42.29,53.33-57.48,96.79-57.5,50.69,0,85.13,12.5,85.13,12.5l-11.88,36a183.15,183.15,0,0,0-51.89-10.26c-24.62-1.19-54.35-.05-56.92,14.59s14.89,19.72,56.92,26.31C977.89,508.43,989.06,541.93,983.29,569.18Zm602.09-132.36c-20-11.89-54-13.62-72.42-13.62h-82.28V614.27l2.07.18H1513c24.55,0,57.39-2.15,74.68-12.43,28.25-16.88,43.22-46.06,43.22-84.61C1630.86,483.25,1614.28,453.87,1585.38,436.82ZM1513,576.6c-13,0-22.8-.28-28.5-.46l-1,0V462.17l1-.09c5.13-.24,15.72-.61,29-.61,35.94,0,59.14,23,59.14,58.36C1572.55,555.4,1550.25,576.6,1513,576.6ZM1272.81,423.2l-76.29,167.19-80-79,89.62-88.19h-60.35l-85,84.83V423.2h-54.88V613.8h54.88V524.7L1149.51,614l93.39,0,18.4-42.11h94.38L1374.14,614h54.43l-87-190.81Zm6.52,107.44,29.18-66.84,29.2,66.84Z"/>
    <polygon class="cls-2" points="796.8 689.48 826.38 689.48 826.38 695.8 789.91 695.8 789.91 647.45 796.8 647.45 796.8 689.48"/>
    <rect class="cls-2" x="833.34" y="647.46" width="6.87" height="48.34"/>
    <path class="cls-2" d="M874.26,652.65c-11.24,0-18,7.2-18,19s6.79,19,17.79,19c10,0,16.87-5.65,17.7-14.37H876.45v-6.32h21.74V695.8h-4.8l-.67-8.12c-3.73,6.14-10.19,9.4-18.72,9.4-15.06,0-24.85-10.17-24.85-25.44,0-15.46,9.66-25.46,25.63-25.46,12.59,0,22,7.05,22.93,16.53h-7c-1.82-6.4-7.69-10.06-16.47-10.06"/>
    <polygon class="cls-2" points="916.27 666.63 945.71 666.63 945.71 647.46 952.58 647.46 952.58 695.8 945.71 695.8 945.71 672.97 916.27 672.97 916.27 695.8 909.44 695.8 909.44 647.46 916.27 647.46 916.27 666.63"/>
    <polygon class="cls-2" points="1001.87 647.45 1001.87 653.77 983.42 653.77 983.42 695.8 976.57 695.8 976.57 653.77 958.1 653.77 958.1 647.45 1001.87 647.45"/>
    <path class="cls-2" d="M1063.44,647.45h7.11l21.52,48.35H1085L1078.84,682H1054.1l-6.38,13.78h-7.27ZM1076,675.7l-9.26-20.6L1057,675.7Z"/>
    <polygon class="cls-2" points="1104.45 689.48 1134.02 689.48 1134.02 695.8 1097.59 695.8 1097.59 647.45 1104.45 647.45 1104.45 689.48"/>
    <polygon class="cls-2" points="1147.34 689.48 1176.91 689.48 1176.91 695.8 1140.48 695.8 1140.48 647.45 1147.34 647.45 1147.34 689.48"/>
    <path class="cls-2" d="M1207.22,646.18c16.45,0,26.45,10.06,26.45,25.46s-10,25.43-26.51,25.43S1180.7,687,1180.7,671.64s10-25.46,26.52-25.46m0,44.42c12.33,0,19.33-7.19,19.33-19s-7-19-19.39-19-19.29,7.13-19.29,19S1194.9,690.6,1207.22,690.6Z"/>
    <polygon class="cls-2" points="1243.86 647.45 1260.5 669.97 1277.37 647.45 1285.57 647.45 1264.03 675.62 1264.03 695.8 1257.19 695.8 1257.19 675.62 1235.5 647.45 1243.86 647.45"/>
    <polygon class="cls-2" points="1323.24 646.65 1336.71 688.94 1349.9 646.65 1357.76 646.65 1370.94 688.94 1384.4 646.65 1391.63 646.65 1375.42 695 1367.28 695 1353.73 653.31 1340.38 695 1332.24 695 1315.98 646.65 1323.24 646.65"/>
    <polygon class="cls-2" points="1404.33 665.83 1433.74 665.83 1433.74 646.66 1440.58 646.66 1440.58 695 1433.74 695 1433.74 672.17 1404.33 672.17 1404.33 695 1397.47 695 1397.47 646.66 1404.33 646.66 1404.33 665.83"/>
    <polygon class="cls-2" points="1451.67 646.65 1490.1 646.65 1490.1 652.97 1458.51 652.97 1458.51 667.1 1488.16 667.1 1488.16 673.43 1458.51 673.43 1458.51 688.68 1490.55 688.68 1490.55 695 1451.67 695 1451.67 646.65"/>
    <polygon class="cls-2" points="1499.28 646.65 1537.7 646.65 1537.7 652.97 1506.12 652.97 1506.12 667.1 1535.79 667.1 1535.79 673.43 1506.12 673.43 1506.12 688.68 1538.2 688.68 1538.2 695 1499.28 695 1499.28 646.65"/>
    <polygon class="cls-2" points="1553.76 688.68 1583.33 688.68 1583.33 695 1546.9 695 1546.9 646.65 1553.76 646.65 1553.76 688.68"/>
    <path class="cls-2" d="M1622,660.71c-.46-6.21-4.6-9-13-9s-12.65,2.79-12.65,7.67c0,3.92,2.73,5.46,8.6,6.59l10.58,2.08c10.23,1.93,15.08,5,15.08,13.1,0,9.33-7.45,15.12-21,15.12-14.48,0-22.09-6-22.09-17.59h7.27c.27,7.6,5.19,11.26,15.21,11.26,8.72,0,13.37-3.13,13.37-8.2,0-4-2.59-5.84-8.32-6.84l-11.91-2.12c-9.5-1.69-14-5.47-14-12.8,0-9.08,7-14.6,20.4-14.6,12.4,0,19.26,5.52,19.26,15.33Z"/>
  </g>
  <g>
    <path class="cls-1" d="M459.18,292.58H449C308.94,295.3,195.82,410.07,195.82,550.75,195.82,693.15,311.69,809,454.09,809S712.28,693.15,712.28,550.75c0-140.68-113-255.45-253.1-258.17M454.09,771.5c-121.74,0-220.75-99-220.75-220.75s99-220.69,220.75-220.69,220.71,99,220.71,220.69S575.78,771.5,454.09,771.5Z"/>
    <path class="cls-1" d="M468.4,514.31a28.5,28.5,0,0,1-13.17-23.38l-198.61,0,34.92,23.58Z"/>
    <path class="cls-1" d="M543.45,551.57s-9.42-7.73-30.23-14.71c-15.67-5.26-25.28-8.86-25.28-8.86H311.49l34.95,23.57Z"/>
    <path class="cls-1" d="M511.93,456.48c32,0,58,13,58,13l22.81-46.88S561.41,408,509.92,406.33c-70.34-2.17-121.9,35.82-131.1,68.22h79.8s12.23-18.07,53.31-18.07"/>
    <path class="cls-1" d="M400.05,587.33H571.34C567.84,572.06,555,564,555,564H364.82Z"/>
    <path class="cls-1" d="M486.23,601.63s10.76,9.87,7.19,22.61c-4.61,16.45-26.63,25.58-54.51,26.26-46.81,1.14-78.63-16-78.63-16l-25.15,50.79s43.51,16.94,95.87,18.87c76.14,2.79,141.72-34.65,143.55-94.49a73.63,73.63,0,0,0-.57-8.15Z"/>
  </g>
</svg>
