<svg id="Layer_1" data-name="Layer 1" xmlns="http://www.w3.org/2000/svg" viewBox="0 -50 506.31 350"><defs><style>.cls-1{fill:#1d1d1b;}</style></defs><path class="cls-1" d="M271.56,255.51c18.67,28.87,37.36,57.76,56,86.94h-70.9Q237,306.57,217.29,270.67v71.78H159.53V170.88h57.76v73.24c12.26-24.22,24.52-48.73,37.07-73.24h66.52C304.53,198.89,288.2,227.2,271.56,255.51Zm195,72.23c-4.28,5.42-8.57,11.14-13.15,16.85a119.44,119.44,0,0,1-24.6-24,74.23,74.23,0,0,1-21.43,17.16c-7.43,4-15.76,5.72-24.89,5.72-16.3,0-29.45-6-39.17-17.73A47.45,47.45,0,0,1,331.57,294a44.77,44.77,0,0,1,9.73-28.31c6.27-8.3,16-15.73,28.3-22-7.15-8.87-12-15.73-14.3-21.17a37.94,37.94,0,0,1-3.72-16c0-10,3.72-18.87,11.45-26.29,7.41-7.44,17.14-11.45,28.56-11.45,10.88,0,20,3.72,26.9,10.87a35,35,0,0,1,10.58,25.45c0,16-10.31,29.74-30.58,41.19,9.41,12.85,19.15,25.74,28.87,38.59a91.64,91.64,0,0,0,8-23.73c6.59,1.42,13.46,2.87,20.31,4.57-3.43,14.89-8.27,26.88-14.28,36.32C448.81,312,457.09,320.87,466.53,327.74ZM371.59,204.48c0,2.86.87,5.43,2.3,8.58a42.54,42.54,0,0,0,5.43,8.86c2.87,3.44,6,7.15,9.15,10.88,8.3-5.16,14-10,16.58-14a26.13,26.13,0,0,0,3.71-13.43,19.76,19.76,0,0,0-5.12-14c-3.45-3.73-7.73-5.44-13.16-5.44a18.54,18.54,0,0,0-18.89,18.59Zm44.61,99.81q-18-23.6-36-47.19c-10.57,6.58-17.72,12.88-21.72,18.58A30.91,30.91,0,0,0,353,292.55c0,6.87,2.58,14,7.71,21.17,5.16,7.43,12.31,11.15,22,11.15,6,0,12-2,18.3-5.72A42.07,42.07,0,0,0,416.2,304.29Zm179.51-48.78c16.64-28.31,33-56.62,49.29-84.63H578.49c-12.55,24.51-24.79,49-37,73.24V170.88H483.66V342.45h57.79V270.67q19.68,35.91,39.37,71.78H652C633.07,313.27,614.38,284.38,595.71,255.51Zm-426.59,118h-9.64v42.89h9.64Zm17.31,0h-10.2V381h10.2Zm-.27,11.94h-9.65v30.95h9.65Zm35.52,0h-9.34l-.36,1.38a13.42,13.42,0,0,0-7.66-2.24,12.45,12.45,0,0,0-5,1.07,11.57,11.57,0,0,0-4.13,3,14.78,14.78,0,0,0-2.8,4.94,19.81,19.81,0,0,0-1,6.53c0,5.33,1.09,9.29,3.26,11.91s5.27,3.91,9.28,3.91a11.58,11.58,0,0,0,4.4-.87,13.14,13.14,0,0,0,3.76-2.3v.58a14.27,14.27,0,0,1-.33,3.29,5.55,5.55,0,0,1-1.16,2.28,5.46,5.46,0,0,1-2.47,1.45,14.35,14.35,0,0,1-4.09.5,13.71,13.71,0,0,1-2.32-.19c-.75-.13-1.52-.3-2.31-.49s-1.32-.39-2-.61-1.22-.43-1.7-.61h-1.13v7.75a47.17,47.17,0,0,0,4.81.92,40.57,40.57,0,0,0,5.86.4,27,27,0,0,0,6.67-.76,13.21,13.21,0,0,0,5.15-2.47,11.1,11.1,0,0,0,3.39-4.68,19.08,19.08,0,0,0,1.24-7.3Zm-12,22.46a7.48,7.48,0,0,1-2.55.44,6.55,6.55,0,0,1-2.85-.54,4.38,4.38,0,0,1-1.81-1.58,6.66,6.66,0,0,1-1-2.47,18.13,18.13,0,0,1-.27-3.4,10,10,0,0,1,1.75-6.27,6.22,6.22,0,0,1,5.23-2.25,10.68,10.68,0,0,1,2.09.22,8.61,8.61,0,0,1,1.77.56v14A8.9,8.9,0,0,1,209.65,407.89Zm48.42-11.66q0-5.67-2.51-8.66a8.93,8.93,0,0,0-7.25-3,10.86,10.86,0,0,0-5,1.14,24.1,24.1,0,0,0-4.62,3.14V373.49h-9.64v42.89h9.64V394.44a11.83,11.83,0,0,1,2.6-1.41,7,7,0,0,1,2.4-.43,5.82,5.82,0,0,1,2.5.45,3.05,3.05,0,0,1,1.44,1.5,8.68,8.68,0,0,1,.56,2.74c.1,1.25.15,2.49.15,3.74v15.35h9.71Zm23.31,20.52a25.33,25.33,0,0,0,3.34-.65v-6.8h-.83a9.4,9.4,0,0,1-1.75.61,8.93,8.93,0,0,1-2,.33,5.74,5.74,0,0,1-2.85-.57,3,3,0,0,1-1.36-1.53,5.57,5.57,0,0,1-.44-2.18c0-.8,0-1.75,0-2.84v-11h9.29v-6.72h-9.29v-8.85h-9.65v8.85h-3.69v6.72h3.69v14.47q0,5.52,2.69,7.94t8.58,2.43A32.81,32.81,0,0,0,281.38,416.75Zm40.88-.37h9.58V395.32c0-3.63-1.21-6.34-3.65-8.11s-6.31-2.66-11.64-2.66a37.62,37.62,0,0,0-6.45.56c-2.13.38-3.68.71-4.63,1v7.47h.83a32.43,32.43,0,0,1,4.46-1.59,15.77,15.77,0,0,1,4-.62,12.74,12.74,0,0,1,5.66,1,3.64,3.64,0,0,1,1.89,3.54V396q-4.19.27-7.83.77a20.87,20.87,0,0,0-6.25,1.76,9.52,9.52,0,0,0-4,3.37,10,10,0,0,0-1.38,5.56,9.49,9.49,0,0,0,2.71,6.95,9.19,9.19,0,0,0,6.83,2.76,11.35,11.35,0,0,0,5.95-1.3,11.07,11.07,0,0,0,2.11-1.32c.52-.44,1.11-.94,1.78-1.49Zm-2.4-6.45a6.38,6.38,0,0,1-2.59.58,6.08,6.08,0,0,1-3.46-.81,3.4,3.4,0,0,1-1.17-3,3.75,3.75,0,0,1,.7-2.39,4.16,4.16,0,0,1,2-1.33,12.91,12.91,0,0,1,3-.7c1-.13,2.33-.27,4-.44v6.45A8.16,8.16,0,0,1,319.86,409.93Zm28.77-36.44H339v42.89h9.65Zm17,0H356v42.89h9.64Zm32.91,15.37q-4.19-4.39-11.79-4.4c-5.06,0-9,1.46-11.79,4.37s-4.2,6.94-4.2,12.09,1.4,9.1,4.2,12,6.73,4.39,11.79,4.39,9-1.46,11.81-4.39,4.17-6.94,4.17-12S401.37,391.79,398.57,388.86Zm-6.14,16.73a8.85,8.85,0,0,1-1.3,2.86,4.42,4.42,0,0,1-1.91,1.48,6.18,6.18,0,0,1-2.36.5,6.42,6.42,0,0,1-2.56-.5,4.45,4.45,0,0,1-1.93-1.57,8.81,8.81,0,0,1-1.22-2.8,18.35,18.35,0,0,1-.46-4.58,18.88,18.88,0,0,1,.49-4.72,8.35,8.35,0,0,1,1.32-2.95,4.68,4.68,0,0,1,1.93-1.53,6.69,6.69,0,0,1,2.35-.4,6.12,6.12,0,0,1,2.45.46,4.68,4.68,0,0,1,1.93,1.61,8.45,8.45,0,0,1,1.25,2.94,23.74,23.74,0,0,1,0,9.2Zm34.42-20.16-6.09,19.4-6.51-19.4H404.11l11.36,30.21-4.69,12.1h10.37l15.62-42.31Zm66.26,0-4.66,20.48-5.54-20.48H474.4l-5.87,20.48-4.75-20.48H453.64l9,30.95h10.25l5.46-20,5.43,20H494l9-30.95Zm43,10.8q0-5.67-2.5-8.66a8.93,8.93,0,0,0-7.25-3,10.86,10.86,0,0,0-5,1.14,23.45,23.45,0,0,0-4.61,3.14V373.49h-9.65v42.89h9.65V394.44a11.56,11.56,0,0,1,2.59-1.41,7,7,0,0,1,2.39-.43,5.84,5.84,0,0,1,2.51.45,3,3,0,0,1,1.43,1.5,8.36,8.36,0,0,1,.57,2.74c.1,1.25.15,2.49.15,3.74v15.35h9.7ZM563.19,417a27.54,27.54,0,0,0,3.23-.64,19.49,19.49,0,0,0,2.69-.82l2.17-.87v-8h-1c-.43.31-1,.67-1.65,1.07a16.63,16.63,0,0,1-2.19,1.13,15.68,15.68,0,0,1-3,1,14.74,14.74,0,0,1-3.31.38,16.32,16.32,0,0,1-3.61-.38,8.19,8.19,0,0,1-2.89-1.22,6.19,6.19,0,0,1-2-2.31,8.8,8.8,0,0,1-.92-3.59h21.14v-3.47q0-7.14-3.58-11t-10.69-3.83q-7.83,0-12.18,4.53T541,401.08q0,7.76,4.67,11.94t13.44,4.19A29.29,29.29,0,0,0,563.19,417Zm-12.53-20.05a7,7,0,0,1,1.75-4.57,5.76,5.76,0,0,1,4.4-1.68,5.06,5.06,0,0,1,4.09,1.59,7.47,7.47,0,0,1,1.42,4.66Zm46,20.05a28.13,28.13,0,0,0,3.24-.64,19.28,19.28,0,0,0,2.68-.82l2.17-.87v-8h-1c-.42.31-1,.67-1.64,1.07a17.28,17.28,0,0,1-2.19,1.13,15.55,15.55,0,0,1-3,1,14.66,14.66,0,0,1-3.3.38,16.35,16.35,0,0,1-3.62-.38,8.27,8.27,0,0,1-2.89-1.22,6.37,6.37,0,0,1-2-2.31,8.8,8.8,0,0,1-.91-3.59h21.14v-3.47q0-7.14-3.58-11t-10.7-3.83q-7.81,0-12.18,4.53t-4.35,12.09q0,7.76,4.67,11.94t13.44,4.19A29.14,29.14,0,0,0,596.7,417Zm-12.53-20.05a7,7,0,0,1,1.75-4.57,5.77,5.77,0,0,1,4.4-1.68,5,5,0,0,1,4.09,1.59,7.41,7.41,0,0,1,1.42,4.66ZM620,373.49H610.3v42.89H620Zm23.25,42.95a15.37,15.37,0,0,0,4.67-2.26,9.31,9.31,0,0,0,2.89-3.33,8.87,8.87,0,0,0,1-4.14,8.39,8.39,0,0,0-1.72-5.53A10.62,10.62,0,0,0,645,398a21.62,21.62,0,0,0-3.1-.78c-1.07-.19-2-.39-2.85-.59a8.69,8.69,0,0,1-3.12-1.19,2.06,2.06,0,0,1-.71-1.65,2.14,2.14,0,0,1,1.45-1.9,7.86,7.86,0,0,1,3.54-.72,13.15,13.15,0,0,1,3.07.36,15.37,15.37,0,0,1,2.71.9c.68.32,1.38.69,2.1,1.12a17.6,17.6,0,0,1,1.57,1h.77v-7.83a22.8,22.8,0,0,0-4.6-1.56,26,26,0,0,0-6-.65,21,21,0,0,0-6.13.83,14.65,14.65,0,0,0-4.57,2.23,10,10,0,0,0-2.79,3.27,8.27,8.27,0,0,0-1,3.9,8.87,8.87,0,0,0,1.83,5.83,11.15,11.15,0,0,0,5.47,3.35,25.54,25.54,0,0,0,3,.73c1.12.21,2,.41,2.78.59a7.91,7.91,0,0,1,2.78,1.05A1.93,1.93,0,0,1,642,408a2.13,2.13,0,0,1-1.56,2,9.47,9.47,0,0,1-3.59.63,14.41,14.41,0,0,1-3.69-.45,19.56,19.56,0,0,1-3-1.09,13.28,13.28,0,0,1-2.45-1.33c-.59-.42-1.11-.8-1.57-1.15h-.8v8.16a24,24,0,0,0,5,1.73,26.92,26.92,0,0,0,6.46.74A22.9,22.9,0,0,0,643.2,416.44Z" transform="translate(-159.48 -168.73)"/></svg>
