<svg id="Слой_1" data-name="Слой 1" xmlns="http://www.w3.org/2000/svg" viewBox="0 0 506.31 194.77"><defs><style>.cls-1{fill:#eb6711;}</style></defs><path class="cls-1" d="M549.05,176.88c-.46-.49-.71-1-3.15-.36-20.09,5.59-22.77,8.06-38.57,10.2-9.42,1.27-12.72,1.9-19.33,1.81-8.64-.1-9.51.46-17-2.23-10-3.59-12.7-7.74-15.37-10.34s-2.63-5.74-3.66-8.91-.93-6.35-1.08-9.46-.68-5.08-2.22-5.08a10.93,10.93,0,0,0-3.77.65,23.54,23.54,0,0,0-5.78,3c-4.77,3.57-10.35,10.24-23.12,20.68-6.47,5.32-18.46,15.22-27,21.66-5.69,4.3-12.76,7.05-18.54,9.35s-11,3.08-13.84,2.54-4.93-1.59-7.71-4.75a15.32,15.32,0,0,1-3.84-9,24.17,24.17,0,0,1,1.38-8.09c.7-1.81,2-2.21,3.71-2.21s3.53.15,5.84.07,3.7-.31,7.15-1.81a74.54,74.54,0,0,0,8.62-4.76,67,67,0,0,0,8.33-5.94c2-1.9,5.07-4.59,5.55-10s-.24-7.6-1.24-11.72a8.45,8.45,0,0,0-7.64-6.25,30.94,30.94,0,0,0-6.16-.16,25.4,25.4,0,0,0-10.69,3,58.55,58.55,0,0,0-15.62,12.11,63.62,63.62,0,0,0-11.69,18.86,42.69,42.69,0,0,0-3.69,17c0,.16,0,.32,0,.47-2.2,1.47-4.59,3-6.85,4.3a114.46,114.46,0,0,1-16.45,8c-5.77,2.29-11,3.07-13.85,2.52s-4.93-1.58-7.7-4.75a15.23,15.23,0,0,1-3.84-9,23.68,23.68,0,0,1,1.38-8.09c.68-1.82,2-2.21,3.68-2.21s3.55.15,5.86.08,3.69-.31,7.16-1.83a72,72,0,0,0,8.61-4.75,67.4,67.4,0,0,0,8.31-5.95c2-1.89,5.08-4.58,5.53-10s-.21-7.6-1.21-11.73a8.42,8.42,0,0,0-7.63-6.24,31.73,31.73,0,0,0-6.16-.17,25.5,25.5,0,0,0-10.68,3,58,58,0,0,0-15.62,12.12,53.61,53.61,0,0,0-5.81,7.51,11.44,11.44,0,0,1-1.43-.1c-2.92-.42-5.48-2.47-8.2-4s-6.87-4-12.12-5.08-8.71-1-12.91,1.1-11,6.3-13.86,8.1-4.9,1.28-3.61-1.51c.4-.88,1.25-2.81,1.69-3.58,1-1.73,1.9-3.1,1.51-6a21.44,21.44,0,0,0-2.36-8.24,7.58,7.58,0,0,0-4.54-3.33c-2.12-.72-3.39-1-5,.8s-2.76,4.21-4.77,7.75-3.85,9.19-5.08,14.73-3.54,17.13-6.46,28.05-6.23,20.9-7.54,25.34-.47,5.31,0,7,2.38,3.16,4.54,4.83,4.85.55,5.92-.31a15.13,15.13,0,0,0,5.23-7.06c1.38-4,4.93-14.72,7.4-21.93a49.36,49.36,0,0,1,8.26-14.52,30.07,30.07,0,0,1,6.77-6.34,118.9,118.9,0,0,1,13.94-7.92,17.15,17.15,0,0,1,10.57-1.81c2.07.26,3.82.52,7.78.73a86.84,86.84,0,0,0,10.94-.94c-1,1.93-1.84,3.81-2.56,5.53a42.18,42.18,0,0,0-3.69,17,35.21,35.21,0,0,0,4.23,15.83c3.15,5.24,9.58,10,16.23,11.74,8,2.07,16.85-1.67,22.47-4.45s11.91-8.24,16.84-12.82c1.75-1.63,3.89-3.45,5.92-5.16a32.52,32.52,0,0,0,3.37,9c3.16,5.23,9.6,10,16.24,11.72,8,2.07,16.85-1.67,22.46-4.43s13.47-8.87,18.4-13.47c2.58-2.38,11.91-11,20.21-18.57,10-9.21,11.67-12.57,17.81-17.43s9.76-7.49,12.85-9.11,3.16.72,3.47,2.77c.62,4,1.61,10.67,5.2,14.89a41.22,41.22,0,0,0,14.53,11.4c6.25,3.13,8.89,3.05,16.47,3.81s11.72.48,26.31-2.53c14.17-2.93,22.35-6.5,38.11-11.76C549,178.64,549.81,177.7,549.05,176.88Zm-193.41-7.41a18,18,0,0,1,3.9-4.21,32.88,32.88,0,0,1,5.85-3.49c2.41-1.12,4.11-1,4.21.94a6.08,6.08,0,0,1-2,4.64,33.49,33.49,0,0,1-4.2,3.75,10.8,10.8,0,0,1-4.16,2,8.93,8.93,0,0,1-3.75.16C354.1,172.93,354.52,171.16,355.64,169.47Zm-64.83,1.69a17.61,17.61,0,0,1,3.9-4.22,33.12,33.12,0,0,1,5.85-3.49c2.42-1.1,4.1-1,4.21,1a6.17,6.17,0,0,1-2,4.65,32,32,0,0,1-4.2,3.73,10.64,10.64,0,0,1-4.16,2,8.76,8.76,0,0,1-3.75.15C289.26,174.6,289.69,172.86,290.81,171.16ZM79.6,154.92c-2.8-.35-7.94-.73-11.76,1.16a30.2,30.2,0,0,0-8,5.31c-1.57,1.41-3.11,4.26-1.45,5.41,1.34.92,3.46.81,2.79,2.89s-9.07,31.46-11.42,41.5S43.88,234.12,43.2,239s.42,6.2,2.31,6.47c1.69.24,2.86-.24,4.79-1a10.59,10.59,0,0,0,4.78-4.1,138.78,138.78,0,0,0,9.74-17.3c4.48-9.21,6.05-14.75,9.86-27.09s7.16-23.17,8.39-31.12S82.4,155.27,79.6,154.92Zm8.59-44.27c-.51-1-2.33-3.15-4.49-3.44a11.76,11.76,0,0,0-5.42.29c-3,.68-6.06,6-7.36,8.59a9.46,9.46,0,0,0-.43,7.86,22,22,0,0,0,3.55,6.5,12.21,12.21,0,0,0,4.89,3.37c2.3.94,4.36,1.67,6.23,1.18a7.74,7.74,0,0,0,3-1.63c1-.83,2.4-2.92,2.56-7.61s-.07-9.17-1-11.82A28.5,28.5,0,0,0,88.19,110.65Zm140,24.29c3.61-.47,5.31-1.12,3.69-2.85s-2.77-1.83-7.07-1.89-19.47.62-26.47,1.18a146.73,146.73,0,0,0-24.94,3.89c-9.93,2.44-22.15,6-22.15,6s4.76-15.52,7.7-22.81,4.35-10.23,8.3-14.58c4.47-4.91,6.15-6.32,12.62-8.86a104.6,104.6,0,0,1,20.93-6,171.23,171.23,0,0,1,22.78-2.52c5.08-.33,6.86,1.1,6.26,4.43s-3.95,6.66-8.58,10a142.17,142.17,0,0,1-20.77,11.57c-8.78,3.9-18.88,7.8-20.62,8.55s-3.06,1.51-3.64,2.63a4.26,4.26,0,0,0-.57,2.37c.32,1,1.75.69,4.53-.25s9.22-3.07,18.92-6.81a180,180,0,0,0,23.23-11.08c6.46-3.61,9.87-7.09,11.46-9s4.28-6.33,5-9.35,2-7.37-.15-11.48-5.93-6.74-9.31-8.79-7.24-2.86-15.93-1.11S201.84,71,194.37,73.39s-12.62,4.45-15.07,5.33-4.53.62-3.09-3c1-2.55.93-2.13,1.93-5a19,19,0,0,0,1.23-7.2c.08-2.78-.15-4.68-.31-7.61s-1.23-3.49-2.23-4.11a5,5,0,0,0-4.61-.81,35.14,35.14,0,0,0-5.55,2.07,8.62,8.62,0,0,0-3.07,2.69,75.07,75.07,0,0,0-6.16,10.46c-1.54,3.25-8.31,23.91-15.69,44.36s-9.09,25.49-11.24,31S128.3,149,125,150.14a100.16,100.16,0,0,0-10.63,4.43c-3.62,1.76-5.78,3.5-6.09,4.52a7.28,7.28,0,0,0,.86,4.36,4.69,4.69,0,0,0,3.69,2.86,20.23,20.23,0,0,0,5.22.32,18,18,0,0,0,3.32-.32c2.92-.31,3.15,2,2.69,4.58s-5.08,21.71-6.62,33.75-3.18,28.2-3.39,30.41a5.74,5.74,0,0,0,1.28,4.35,11.81,11.81,0,0,0,2.26,2.46c1,.91,2.93.56,3.86-.23s1.76-1.43,3.07-2.77a14.45,14.45,0,0,0,3.7-6.34c1-3.28,14.77-58,16.31-63.53s2.29-6.17,4.92-7.76c1-.59,4.45-2,7.54-3.33,5.32-2.26,6-2.69,10.93-4.59,2.23-.85,7.25-3,13.07-5.46,7-2.91,14.91-6.17,18-7.2C204.68,138.75,224.62,135.43,228.23,134.94Z" transform="translate(-43 -50.72)"/></svg>