<svg id="LAYER_1" xmlns="http://www.w3.org/2000/svg" viewBox="0 0 1175.15 125.05"><defs><style>.cls-1{fill:#a40133;}</style></defs><rect class="cls-1" x="836.92" y="5.01" width="67.05" height="120.04"/><path class="cls-1" d="M759.57,484.52c-67.58,0-122.36,28-122.36,62.55l0,62.49h69.8V591.81h105v17.75h69.84V547.07C881.92,512.48,827.13,484.52,759.57,484.52Zm52.51,81.78h-105V547.07c0-20.46,23.47-37,52.51-37s52.51,16.54,52.51,37Z" transform="translate(-359.42 -484.52)"/><path class="cls-1" d="M553.49,573.23c54.7-15.84,67-46.51,27.39-68.43S464.74,478,410,493.82c-31.79,9.19-50.6,24-50.6,39.74v76H429.2v-24h52.51c27.36-.66,50.08,9.8,52.21,24h72.53C601.72,595.35,582.48,582.18,553.49,573.23ZM481.71,564H429.2V533.56c0-16.84,23.51-30.44,52.51-30.44s52.58,13.6,52.58,30.44S510.77,564,481.71,564Z" transform="translate(-359.42 -484.52)"/><path class="cls-1" d="M1039.73,484.52c-67.53,0-122.3,24-122.3,53.47v71.57h69.78V591.48h52.52c67.6,0,122.39-23.92,122.39-53.49S1107.33,484.52,1039.73,484.52Zm0,81.78H987.21V535.88c0-16.79,23.54-30.4,52.52-30.4s52.56,13.61,52.56,30.4S1068.76,566.3,1039.73,566.3Z" transform="translate(-359.42 -484.52)"/><path class="cls-1" d="M1417.09,489.53H1299.61v120h117.48c64.86,0,117.49-26.84,117.49-60S1482,489.53,1417.09,489.53Zm0,95.53h-50.45V514h50.45c27.89,0,50.46,15.9,50.46,35.5S1445,585.06,1417.09,585.06Z" transform="translate(-359.42 -484.52)"/></svg>